<svg xmlns="http://www.w3.org/2000/svg" width="1024" height="1024" viewBox="0 0 1024 1024">
  <defs>
    <linearGradient id="bg" x1="160" y1="120" x2="864" y2="904" gradientUnits="userSpaceOnUse">
      <stop offset="0" stop-color="#1677ff"/>
      <stop offset="1" stop-color="#13c2c2"/>
    </linearGradient>
    <linearGradient id="clock" x1="328" y1="280" x2="704" y2="760" gradientUnits="userSpaceOnUse">
      <stop offset="0" stop-color="#ffffff"/>
      <stop offset="1" stop-color="#eef8ff"/>
    </linearGradient>
    <filter id="shadow" x="-20%" y="-20%" width="140%" height="140%">
      <feDropShadow dx="0" dy="26" stdDeviation="30" flood-color="#0b3b72" flood-opacity="0.22"/>
    </filter>
  </defs>

  <rect width="1024" height="1024" rx="224" fill="url(#bg)"/>
  <circle cx="808" cy="218" r="92" fill="#ffffff" opacity="0.13"/>
  <circle cx="194" cy="812" r="122" fill="#ffffff" opacity="0.10"/>

  <g filter="url(#shadow)">
    <circle cx="512" cy="486" r="242" fill="url(#clock)"/>
    <circle cx="512" cy="486" r="190" fill="none" stroke="#1677ff" stroke-width="34" opacity="0.95"/>
    <path d="M512 360v136l102 72" fill="none" stroke="#0f5fd4" stroke-width="42" stroke-linecap="round" stroke-linejoin="round"/>
    <circle cx="512" cy="486" r="26" fill="#0f5fd4"/>
  </g>

  <g filter="url(#shadow)">
    <circle cx="392" cy="704" r="62" fill="#ffffff"/>
    <circle cx="632" cy="704" r="62" fill="#ffffff"/>
    <path d="M276 850c28-78 84-122 146-122s118 44 146 122" fill="none" stroke="#ffffff" stroke-width="58" stroke-linecap="round"/>
    <path d="M456 850c28-78 84-122 146-122s118 44 146 122" fill="none" stroke="#ffffff" stroke-width="58" stroke-linecap="round"/>
    <path d="M346 848h332" fill="none" stroke="#e7f7ff" stroke-width="30" stroke-linecap="round"/>
  </g>
</svg>
