<svg xmlns="http://www.w3.org/2000/svg" width="390" height="844" viewBox="0 0 390 844">
  <rect width="390" height="844" fill="#f6f8fb"/>
  <rect width="390" height="54" fill="#1677ff"/>
  <text x="195" y="35" text-anchor="middle" fill="#fff" font-size="17" font-family="Arial">学员管理</text>
  <text x="16" y="88" fill="#111827" font-size="17" font-weight="700" font-family="Arial">新增学员</text>
  <rect x="16" y="106" width="358" height="330" rx="10" fill="#fff" stroke="#e6ebf2"/>
  <text x="36" y="140" fill="#344054" font-size="13" font-family="Arial">学员姓名</text>
  <rect x="36" y="152" width="318" height="42" rx="8" fill="#fff" stroke="#d7deea"/>
  <text x="52" y="179" fill="#98a2b3" font-size="13" font-family="Arial">请输入学员姓名</text>
  <text x="36" y="220" fill="#344054" font-size="13" font-family="Arial">家长姓名</text>
  <rect x="36" y="232" width="318" height="42" rx="8" fill="#fff" stroke="#d7deea"/>
  <text x="52" y="259" fill="#98a2b3" font-size="13" font-family="Arial">如：王妈妈</text>
  <text x="36" y="300" fill="#344054" font-size="13" font-family="Arial">报名课程</text>
  <rect x="36" y="312" width="318" height="42" rx="8" fill="#fff" stroke="#d7deea"/>
  <text x="52" y="339" fill="#111827" font-size="13" font-family="Arial">钢琴一对一</text>
  <rect x="36" y="374" width="318" height="42" rx="8" fill="#1677ff"/>
  <text x="195" y="401" text-anchor="middle" fill="#fff" font-size="15" font-family="Arial">保存学员</text>
  <text x="16" y="480" fill="#111827" font-size="17" font-weight="700" font-family="Arial">学员列表</text>
  <rect x="16" y="498" width="358" height="104" rx="10" fill="#fff" stroke="#e6ebf2"/>
  <text x="36" y="534" fill="#111827" font-size="17" font-weight="700" font-family="Arial">陈曦</text>
  <text x="36" y="558" fill="#667085" font-size="13" font-family="Arial">钢琴一对一 · 陈妈妈</text>
  <text x="336" y="544" text-anchor="middle" fill="#1677ff" font-size="24" font-weight="700" font-family="Arial">12</text>
  <rect x="244" y="562" width="110" height="30" rx="6" fill="#fff" stroke="#cbd5e1"/>
  <text x="299" y="582" text-anchor="middle" fill="#1f2937" font-size="12" font-family="Arial">充 10 课时</text>
  <rect x="0" y="780" width="390" height="64" fill="#fff" stroke="#e6ebf2"/>
  <text x="39" y="818" text-anchor="middle" fill="#7a869a" font-size="13" font-family="Arial">首页</text>
  <text x="117" y="818" text-anchor="middle" fill="#1677ff" font-size="13" font-family="Arial">学员</text>
  <text x="195" y="818" text-anchor="middle" fill="#7a869a" font-size="13" font-family="Arial">打卡</text>
  <text x="273" y="818" text-anchor="middle" fill="#7a869a" font-size="13" font-family="Arial">记录</text>
  <text x="351" y="818" text-anchor="middle" fill="#7a869a" font-size="13" font-family="Arial">我的</text>
</svg>
